<mxfile host="www.draw.io" modified="2019-12-12T16:18:36.694Z" agent="Mozilla/5.0 (Windows NT 10.0; Win64; x64) AppleWebKit/537.36 (KHTML, like Gecko) Chrome/79.0.3945.74 Safari/537.36" etag="N0sPY6vV149EyV8Tkilu" version="12.4.0" type="github" pages="1">
  <diagram id="ICdfpJFsuThwmuI50rdp" name="Page-1">
    <mxGraphModel dx="1104" dy="488" grid="1" gridSize="10" guides="1" tooltips="1" connect="1" arrows="1" fold="1" page="1" pageScale="1" pageWidth="850" pageHeight="1100" math="0" shadow="0">
      <root>
        <mxCell id="0"/>
        <mxCell id="1" parent="0"/>
        <mxCell id="f9F8cFvLClXmry9gnk70-8" value="ApplicationServer" style="html=1;verticalAlign=top;strokeColor=#0000FF;" parent="1" vertex="1">
          <mxGeometry x="600" y="97" width="1090" height="894" as="geometry"/>
        </mxCell>
        <mxCell id="bCqW9GsPhboXD0qG2JR0-5" style="edgeStyle=orthogonalEdgeStyle;rounded=0;orthogonalLoop=1;jettySize=auto;html=1;endArrow=none;endFill=0;" parent="1" source="t4dxVVUfDJno4B-P36dR-24" target="bCqW9GsPhboXD0qG2JR0-4" edge="1">
          <mxGeometry relative="1" as="geometry"/>
        </mxCell>
        <mxCell id="t4dxVVUfDJno4B-P36dR-24" value="" style="whiteSpace=wrap;html=1;aspect=fixed;" parent="1" vertex="1">
          <mxGeometry x="590" y="478" width="20" height="20" as="geometry"/>
        </mxCell>
        <mxCell id="t4dxVVUfDJno4B-P36dR-27" value="" style="shape=component;jettyWidth=8;jettyHeight=4;" parent="1" vertex="1">
          <mxGeometry x="1663" y="103" width="20" height="20" as="geometry">
            <mxPoint x="-27" y="7" as="offset"/>
          </mxGeometry>
        </mxCell>
        <mxCell id="t4dxVVUfDJno4B-P36dR-93" style="edgeStyle=orthogonalEdgeStyle;rounded=0;orthogonalLoop=1;jettySize=auto;html=1;entryX=0;entryY=0.5;entryDx=0;entryDy=0;endArrow=none;endFill=0;" parent="1" source="t4dxVVUfDJno4B-P36dR-88" target="t4dxVVUfDJno4B-P36dR-92" edge="1">
          <mxGeometry relative="1" as="geometry"/>
        </mxCell>
        <mxCell id="t4dxVVUfDJno4B-P36dR-94" style="edgeStyle=orthogonalEdgeStyle;rounded=0;orthogonalLoop=1;jettySize=auto;html=1;entryX=0;entryY=0.5;entryDx=0;entryDy=0;endArrow=none;endFill=0;" parent="1" source="t4dxVVUfDJno4B-P36dR-90" target="t4dxVVUfDJno4B-P36dR-92" edge="1">
          <mxGeometry relative="1" as="geometry"/>
        </mxCell>
        <mxCell id="t4dxVVUfDJno4B-P36dR-120" style="edgeStyle=orthogonalEdgeStyle;rounded=0;jumpStyle=none;orthogonalLoop=1;jettySize=auto;html=1;entryX=1;entryY=0.5;entryDx=0;entryDy=0;endArrow=none;endFill=0;" parent="1" source="t4dxVVUfDJno4B-P36dR-83" target="t4dxVVUfDJno4B-P36dR-103" edge="1">
          <mxGeometry relative="1" as="geometry"/>
        </mxCell>
        <mxCell id="t4dxVVUfDJno4B-P36dR-83" value="" style="shape=providedRequiredInterface;html=1;verticalLabelPosition=bottom;rotation=180;" parent="1" vertex="1">
          <mxGeometry x="840" y="478" width="20" height="20" as="geometry"/>
        </mxCell>
        <mxCell id="t4dxVVUfDJno4B-P36dR-84" style="edgeStyle=orthogonalEdgeStyle;rounded=0;orthogonalLoop=1;jettySize=auto;html=1;entryX=0;entryY=0.5;entryDx=0;entryDy=0;entryPerimeter=0;endArrow=none;endFill=0;" parent="1" source="t4dxVVUfDJno4B-P36dR-91" target="t4dxVVUfDJno4B-P36dR-83" edge="1">
          <mxGeometry relative="1" as="geometry"/>
        </mxCell>
        <mxCell id="t4dxVVUfDJno4B-P36dR-85" value="ReportManager" style="html=1;verticalAlign=top;strokeColor=#0000FF;" parent="1" vertex="1">
          <mxGeometry x="920" y="360" width="360" height="250" as="geometry"/>
        </mxCell>
        <mxCell id="WwFhheWRcDjslNeChKha-11" style="edgeStyle=orthogonalEdgeStyle;rounded=0;orthogonalLoop=1;jettySize=auto;html=1;startArrow=none;startFill=0;endArrow=none;endFill=0;" parent="1" source="t4dxVVUfDJno4B-P36dR-92" target="t4dxVVUfDJno4B-P36dR-90" edge="1">
          <mxGeometry relative="1" as="geometry">
            <Array as="points">
              <mxPoint x="1220" y="488"/>
              <mxPoint x="1220" y="560"/>
            </Array>
          </mxGeometry>
        </mxCell>
        <mxCell id="WwFhheWRcDjslNeChKha-12" style="edgeStyle=orthogonalEdgeStyle;rounded=0;orthogonalLoop=1;jettySize=auto;html=1;entryX=1;entryY=0.5;entryDx=0;entryDy=0;startArrow=none;startFill=0;endArrow=none;endFill=0;" parent="1" source="t4dxVVUfDJno4B-P36dR-92" target="t4dxVVUfDJno4B-P36dR-88" edge="1">
          <mxGeometry relative="1" as="geometry"/>
        </mxCell>
        <mxCell id="oX8g2IVWqVXseOCtLXfV-18" style="edgeStyle=orthogonalEdgeStyle;rounded=0;orthogonalLoop=1;jettySize=auto;html=1;entryX=1;entryY=0.5;entryDx=0;entryDy=0;entryPerimeter=0;endArrow=none;endFill=0;" edge="1" parent="1" source="t4dxVVUfDJno4B-P36dR-92" target="oX8g2IVWqVXseOCtLXfV-6">
          <mxGeometry relative="1" as="geometry">
            <Array as="points">
              <mxPoint x="1370" y="488"/>
              <mxPoint x="1370" y="375"/>
            </Array>
          </mxGeometry>
        </mxCell>
        <mxCell id="t4dxVVUfDJno4B-P36dR-92" value="" style="whiteSpace=wrap;html=1;aspect=fixed;" parent="1" vertex="1">
          <mxGeometry x="1270" y="478" width="20" height="20" as="geometry"/>
        </mxCell>
        <mxCell id="t4dxVVUfDJno4B-P36dR-111" style="edgeStyle=orthogonalEdgeStyle;rounded=0;jumpStyle=none;orthogonalLoop=1;jettySize=auto;html=1;entryX=0;entryY=0.5;entryDx=0;entryDy=0;entryPerimeter=0;endArrow=none;endFill=0;" parent="1" source="t4dxVVUfDJno4B-P36dR-102" target="t4dxVVUfDJno4B-P36dR-109" edge="1">
          <mxGeometry relative="1" as="geometry"/>
        </mxCell>
        <mxCell id="oX8g2IVWqVXseOCtLXfV-19" style="edgeStyle=orthogonalEdgeStyle;rounded=0;orthogonalLoop=1;jettySize=auto;html=1;entryX=1;entryY=0.5;entryDx=0;entryDy=0;entryPerimeter=0;endArrow=none;endFill=0;" edge="1" parent="1" source="t4dxVVUfDJno4B-P36dR-102" target="oX8g2IVWqVXseOCtLXfV-6">
          <mxGeometry relative="1" as="geometry">
            <Array as="points">
              <mxPoint x="1370" y="675"/>
              <mxPoint x="1370" y="375"/>
            </Array>
          </mxGeometry>
        </mxCell>
        <mxCell id="t4dxVVUfDJno4B-P36dR-102" value="ReportMiner" style="shape=component;align=left;spacingLeft=36;strokeColor=#00CC00;" parent="1" vertex="1">
          <mxGeometry x="1204.5454545454545" y="645" width="130.9090909090909" height="60" as="geometry"/>
        </mxCell>
        <mxCell id="t4dxVVUfDJno4B-P36dR-105" style="edgeStyle=orthogonalEdgeStyle;rounded=0;jumpStyle=none;orthogonalLoop=1;jettySize=auto;html=1;entryX=1;entryY=0.5;entryDx=0;entryDy=0;endArrow=none;endFill=0;" parent="1" source="t4dxVVUfDJno4B-P36dR-103" target="t4dxVVUfDJno4B-P36dR-24" edge="1">
          <mxGeometry relative="1" as="geometry"/>
        </mxCell>
        <mxCell id="t4dxVVUfDJno4B-P36dR-103" value="Router" style="shape=component;align=center;spacingLeft=36;strokeColor=#00CC00;" parent="1" vertex="1">
          <mxGeometry x="660.0454545454545" y="458" width="130.9090909090909" height="60" as="geometry"/>
        </mxCell>
        <mxCell id="t4dxVVUfDJno4B-P36dR-112" style="edgeStyle=orthogonalEdgeStyle;rounded=0;jumpStyle=none;orthogonalLoop=1;jettySize=auto;html=1;entryX=0;entryY=0.5;entryDx=0;entryDy=0;entryPerimeter=0;endArrow=none;endFill=0;" parent="1" source="t4dxVVUfDJno4B-P36dR-104" target="t4dxVVUfDJno4B-P36dR-110" edge="1">
          <mxGeometry relative="1" as="geometry"/>
        </mxCell>
        <mxCell id="t4dxVVUfDJno4B-P36dR-150" style="edgeStyle=orthogonalEdgeStyle;rounded=0;jumpStyle=arc;jumpSize=10;orthogonalLoop=1;jettySize=auto;html=1;entryX=0;entryY=0.5;entryDx=0;entryDy=0;endArrow=none;endFill=0;" parent="1" source="t4dxVVUfDJno4B-P36dR-104" target="t4dxVVUfDJno4B-P36dR-53" edge="1">
          <mxGeometry relative="1" as="geometry">
            <Array as="points">
              <mxPoint x="1470" y="770"/>
              <mxPoint x="1470" y="523"/>
            </Array>
          </mxGeometry>
        </mxCell>
        <mxCell id="1Ea3umTl4piu4ciLJpsN-7" style="edgeStyle=orthogonalEdgeStyle;rounded=0;jumpStyle=arc;jumpSize=10;orthogonalLoop=1;jettySize=auto;html=1;entryX=1;entryY=0.5;entryDx=0;entryDy=0;entryPerimeter=0;endArrow=none;endFill=0;" parent="1" source="t4dxVVUfDJno4B-P36dR-104" target="t4dxVVUfDJno4B-P36dR-109" edge="1">
          <mxGeometry relative="1" as="geometry">
            <Array as="points">
              <mxPoint x="990" y="675"/>
            </Array>
          </mxGeometry>
        </mxCell>
        <mxCell id="oX8g2IVWqVXseOCtLXfV-21" style="edgeStyle=orthogonalEdgeStyle;rounded=0;orthogonalLoop=1;jettySize=auto;html=1;entryX=1;entryY=0.5;entryDx=0;entryDy=0;entryPerimeter=0;endArrow=none;endFill=0;" edge="1" parent="1" source="t4dxVVUfDJno4B-P36dR-104" target="oX8g2IVWqVXseOCtLXfV-4">
          <mxGeometry relative="1" as="geometry">
            <Array as="points">
              <mxPoint x="1420" y="750"/>
              <mxPoint x="1420" y="458"/>
            </Array>
          </mxGeometry>
        </mxCell>
        <mxCell id="t4dxVVUfDJno4B-P36dR-104" value="Improvements&#xa;Manager" style="shape=component;align=left;spacingLeft=36;strokeColor=#00CC00;" parent="1" vertex="1">
          <mxGeometry x="914.5454545454545" y="730" width="130.9090909090909" height="60" as="geometry"/>
        </mxCell>
        <mxCell id="t4dxVVUfDJno4B-P36dR-127" style="edgeStyle=orthogonalEdgeStyle;rounded=0;jumpStyle=none;orthogonalLoop=1;jettySize=auto;html=1;entryX=0.75;entryY=1;entryDx=0;entryDy=0;endArrow=none;endFill=0;" parent="1" source="t4dxVVUfDJno4B-P36dR-109" target="t4dxVVUfDJno4B-P36dR-103" edge="1">
          <mxGeometry relative="1" as="geometry"/>
        </mxCell>
        <mxCell id="t4dxVVUfDJno4B-P36dR-109" value="" style="shape=providedRequiredInterface;html=1;verticalLabelPosition=bottom;rotation=180;" parent="1" vertex="1">
          <mxGeometry x="1165.5" y="665" width="20" height="20" as="geometry"/>
        </mxCell>
        <mxCell id="t4dxVVUfDJno4B-P36dR-122" style="edgeStyle=orthogonalEdgeStyle;rounded=0;jumpStyle=none;orthogonalLoop=1;jettySize=auto;html=1;endArrow=none;endFill=0;entryX=0.75;entryY=1;entryDx=0;entryDy=0;" parent="1" source="t4dxVVUfDJno4B-P36dR-110" target="t4dxVVUfDJno4B-P36dR-103" edge="1">
          <mxGeometry relative="1" as="geometry"/>
        </mxCell>
        <mxCell id="t4dxVVUfDJno4B-P36dR-110" value="" style="shape=providedRequiredInterface;html=1;verticalLabelPosition=bottom;rotation=180;" parent="1" vertex="1">
          <mxGeometry x="839.5" y="750" width="20" height="20" as="geometry"/>
        </mxCell>
        <mxCell id="t4dxVVUfDJno4B-P36dR-119" style="edgeStyle=orthogonalEdgeStyle;rounded=0;jumpStyle=none;orthogonalLoop=1;jettySize=auto;html=1;entryX=0.75;entryY=0;entryDx=0;entryDy=0;endArrow=none;endFill=0;" parent="1" source="t4dxVVUfDJno4B-P36dR-6" target="t4dxVVUfDJno4B-P36dR-103" edge="1">
          <mxGeometry relative="1" as="geometry"/>
        </mxCell>
        <mxCell id="_s4ivpgZW7JqygiYT5gf-30" style="edgeStyle=orthogonalEdgeStyle;rounded=0;jumpStyle=arc;jumpSize=10;orthogonalLoop=1;jettySize=auto;html=1;endArrow=none;endFill=0;" parent="1" source="t4dxVVUfDJno4B-P36dR-124" target="t4dxVVUfDJno4B-P36dR-123" edge="1">
          <mxGeometry relative="1" as="geometry"/>
        </mxCell>
        <mxCell id="_s4ivpgZW7JqygiYT5gf-31" style="edgeStyle=orthogonalEdgeStyle;rounded=0;jumpStyle=arc;jumpSize=10;orthogonalLoop=1;jettySize=auto;html=1;entryX=0.75;entryY=1;entryDx=0;entryDy=0;endArrow=none;endFill=0;" parent="1" source="t4dxVVUfDJno4B-P36dR-124" target="t4dxVVUfDJno4B-P36dR-103" edge="1">
          <mxGeometry relative="1" as="geometry"/>
        </mxCell>
        <mxCell id="t4dxVVUfDJno4B-P36dR-124" value="" style="shape=providedRequiredInterface;html=1;verticalLabelPosition=bottom;rotation=180;" parent="1" vertex="1">
          <mxGeometry x="1000" y="845" width="20" height="20" as="geometry"/>
        </mxCell>
        <mxCell id="f9F8cFvLClXmry9gnk70-32" value="DBMS" style="html=1;align=center;strokeColor=#FF3333;" parent="1" vertex="1">
          <mxGeometry x="1797" y="330" width="123" height="90" as="geometry"/>
        </mxCell>
        <mxCell id="f9F8cFvLClXmry9gnk70-33" value="" style="shape=component;jettyWidth=8;jettyHeight=4;" parent="f9F8cFvLClXmry9gnk70-32" vertex="1">
          <mxGeometry x="1" width="20" height="20" relative="1" as="geometry">
            <mxPoint x="-27" y="7" as="offset"/>
          </mxGeometry>
        </mxCell>
        <mxCell id="Rg6xezFzuOhrAB8FiAtQ-212" value="" style="shape=providedRequiredInterface;html=1;verticalLabelPosition=bottom;fontSize=8;align=center;rotation=180;" parent="1" vertex="1">
          <mxGeometry x="1734" y="365" width="20" height="20" as="geometry"/>
        </mxCell>
        <mxCell id="Rg6xezFzuOhrAB8FiAtQ-210" style="edgeStyle=orthogonalEdgeStyle;rounded=0;orthogonalLoop=1;jettySize=auto;html=1;entryX=0;entryY=0.5;entryDx=0;entryDy=0;entryPerimeter=0;startArrow=none;startFill=0;endArrow=none;endFill=0;fontSize=8;exitX=0;exitY=0.5;exitDx=0;exitDy=0;" parent="1" source="f9F8cFvLClXmry9gnk70-32" target="Rg6xezFzuOhrAB8FiAtQ-212" edge="1">
          <mxGeometry relative="1" as="geometry">
            <mxPoint x="2205" y="375.66666666666674" as="sourcePoint"/>
          </mxGeometry>
        </mxCell>
        <mxCell id="t4dxVVUfDJno4B-P36dR-28" value="" style="whiteSpace=wrap;html=1;aspect=fixed;" parent="1" vertex="1">
          <mxGeometry x="1680" y="365" width="20" height="20" as="geometry"/>
        </mxCell>
        <mxCell id="t4dxVVUfDJno4B-P36dR-34" style="edgeStyle=orthogonalEdgeStyle;rounded=0;orthogonalLoop=1;jettySize=auto;html=1;entryX=1;entryY=0.5;entryDx=0;entryDy=0;endArrow=none;endFill=0;" parent="1" source="Rg6xezFzuOhrAB8FiAtQ-212" target="t4dxVVUfDJno4B-P36dR-28" edge="1">
          <mxGeometry relative="1" as="geometry"/>
        </mxCell>
        <mxCell id="t4dxVVUfDJno4B-P36dR-49" value="MAS" style="html=1;align=center;strokeColor=#FF3333;" parent="1" vertex="1">
          <mxGeometry x="1797" y="477" width="123" height="90" as="geometry"/>
        </mxCell>
        <mxCell id="t4dxVVUfDJno4B-P36dR-50" value="" style="shape=component;jettyWidth=8;jettyHeight=4;" parent="t4dxVVUfDJno4B-P36dR-49" vertex="1">
          <mxGeometry x="1" width="20" height="20" relative="1" as="geometry">
            <mxPoint x="-27" y="7" as="offset"/>
          </mxGeometry>
        </mxCell>
        <mxCell id="t4dxVVUfDJno4B-P36dR-52" value="" style="shape=providedRequiredInterface;html=1;verticalLabelPosition=bottom;fontSize=8;align=center;rotation=180;" parent="1" vertex="1">
          <mxGeometry x="1734" y="512" width="20" height="20" as="geometry"/>
        </mxCell>
        <mxCell id="t4dxVVUfDJno4B-P36dR-48" style="edgeStyle=orthogonalEdgeStyle;rounded=0;orthogonalLoop=1;jettySize=auto;html=1;entryX=0;entryY=0.5;entryDx=0;entryDy=0;entryPerimeter=0;startArrow=none;startFill=0;endArrow=none;endFill=0;fontSize=8;exitX=0;exitY=0.5;exitDx=0;exitDy=0;" parent="1" source="t4dxVVUfDJno4B-P36dR-49" target="t4dxVVUfDJno4B-P36dR-52" edge="1">
          <mxGeometry relative="1" as="geometry">
            <mxPoint x="2255" y="662.6666666666667" as="sourcePoint"/>
          </mxGeometry>
        </mxCell>
        <mxCell id="t4dxVVUfDJno4B-P36dR-53" value="" style="whiteSpace=wrap;html=1;aspect=fixed;" parent="1" vertex="1">
          <mxGeometry x="1680" y="512" width="20" height="20" as="geometry"/>
        </mxCell>
        <mxCell id="t4dxVVUfDJno4B-P36dR-51" style="edgeStyle=orthogonalEdgeStyle;rounded=0;orthogonalLoop=1;jettySize=auto;html=1;entryX=1;entryY=0.5;entryDx=0;entryDy=0;endArrow=none;endFill=0;" parent="1" source="t4dxVVUfDJno4B-P36dR-52" target="t4dxVVUfDJno4B-P36dR-53" edge="1">
          <mxGeometry relative="1" as="geometry"/>
        </mxCell>
        <mxCell id="Rg6xezFzuOhrAB8FiAtQ-204" value="" style="shape=providedRequiredInterface;html=1;verticalLabelPosition=bottom;fontSize=8;align=center;rotation=90;" parent="1" vertex="1">
          <mxGeometry x="52.5" y="200" width="20" height="20" as="geometry"/>
        </mxCell>
        <mxCell id="bCqW9GsPhboXD0qG2JR0-11" style="edgeStyle=orthogonalEdgeStyle;rounded=0;orthogonalLoop=1;jettySize=auto;html=1;entryX=1;entryY=0.5;entryDx=0;entryDy=0;entryPerimeter=0;endArrow=none;endFill=0;" parent="1" source="f9F8cFvLClXmry9gnk70-10" target="bCqW9GsPhboXD0qG2JR0-7" edge="1">
          <mxGeometry relative="1" as="geometry"/>
        </mxCell>
        <mxCell id="f9F8cFvLClXmry9gnk70-10" value="UserMobileApp" style="html=1;align=center;strokeColor=#0000FF;" parent="1" vertex="1">
          <mxGeometry x="98" y="305" width="180" height="90" as="geometry"/>
        </mxCell>
        <mxCell id="f9F8cFvLClXmry9gnk70-11" value="" style="shape=component;jettyWidth=8;jettyHeight=4;align=center;" parent="f9F8cFvLClXmry9gnk70-10" vertex="1">
          <mxGeometry x="1" width="20" height="20" relative="1" as="geometry">
            <mxPoint x="-27" y="7" as="offset"/>
          </mxGeometry>
        </mxCell>
        <mxCell id="Rg6xezFzuOhrAB8FiAtQ-207" style="edgeStyle=orthogonalEdgeStyle;rounded=0;orthogonalLoop=1;jettySize=auto;html=1;entryX=1;entryY=0.5;entryDx=0;entryDy=0;entryPerimeter=0;startArrow=none;startFill=0;endArrow=none;endFill=0;fontSize=8;exitX=0;exitY=0.5;exitDx=0;exitDy=0;" parent="1" source="f9F8cFvLClXmry9gnk70-10" target="Rg6xezFzuOhrAB8FiAtQ-204" edge="1">
          <mxGeometry relative="1" as="geometry">
            <mxPoint x="113" y="363" as="sourcePoint"/>
          </mxGeometry>
        </mxCell>
        <mxCell id="f9F8cFvLClXmry9gnk70-12" value="&lt;span style=&quot;color: rgba(0 , 0 , 0 , 0) ; font-family: monospace ; font-size: 0px&quot;&gt;%3CmxGraphModel%3E%3Croot%3E%3CmxCell%20id%3D%220%22%2F%3E%3CmxCell%20id%3D%221%22%20parent%3D%220%22%2F%3E%3CmxCell%20id%3D%222%22%20value%3D%22%26amp%3Blaquo%3BAnnotation%26amp%3Braquo%3B%26lt%3Bbr%2F%26gt%3B%26lt%3Bb%26gt%3BComponent%26lt%3B%2Fb%26gt%3B%22%20style%3D%22html%3D1%3B%22%20vertex%3D%221%22%20parent%3D%221%22%3E%3CmxGeometry%20x%3D%22155%22%20y%3D%22270%22%20width%3D%22180%22%20height%3D%2290%22%20as%3D%22geometry%22%2F%3E%3C%2FmxCell%3E%3CmxCell%20id%3D%223%22%20value%3D%22%22%20style%3D%22shape%3Dcomponent%3BjettyWidth%3D8%3BjettyHeight%3D4%3B%22%20vertex%3D%221%22%20parent%3D%222%22%3E%3CmxGeometry%20x%3D%221%22%20width%3D%2220%22%20height%3D%2220%22%20relative%3D%221%22%20as%3D%22geometry%22%3E%3CmxPoint%20x%3D%22-27%22%20y%3D%227%22%20as%3D%22offset%22%2F%3E%3C%2FmxGeometry%3E%3C%2FmxCell%3E%3C%2Froot%3E%3C%2FmxGraphModel%3E&lt;/span&gt;" style="text;html=1;resizable=0;points=[];autosize=1;align=center;verticalAlign=top;spacingTop=-4;" parent="1" vertex="1">
          <mxGeometry x="112" y="588" width="20" height="20" as="geometry"/>
        </mxCell>
        <mxCell id="bCqW9GsPhboXD0qG2JR0-10" style="edgeStyle=orthogonalEdgeStyle;rounded=0;orthogonalLoop=1;jettySize=auto;html=1;entryX=1;entryY=0.5;entryDx=0;entryDy=0;entryPerimeter=0;endArrow=none;endFill=0;" parent="1" source="f9F8cFvLClXmry9gnk70-13" target="bCqW9GsPhboXD0qG2JR0-7" edge="1">
          <mxGeometry relative="1" as="geometry"/>
        </mxCell>
        <mxCell id="f9F8cFvLClXmry9gnk70-13" value="LocalOfficerWebApp" style="html=1;align=center;strokeColor=#0000FF;" parent="1" vertex="1">
          <mxGeometry x="98" y="443" width="180" height="90" as="geometry"/>
        </mxCell>
        <mxCell id="f9F8cFvLClXmry9gnk70-14" value="" style="shape=component;jettyWidth=8;jettyHeight=4;align=center;" parent="f9F8cFvLClXmry9gnk70-13" vertex="1">
          <mxGeometry x="1" width="20" height="20" relative="1" as="geometry">
            <mxPoint x="-27" y="7" as="offset"/>
          </mxGeometry>
        </mxCell>
        <mxCell id="Rg6xezFzuOhrAB8FiAtQ-208" style="edgeStyle=orthogonalEdgeStyle;rounded=0;orthogonalLoop=1;jettySize=auto;html=1;entryX=1;entryY=0.5;entryDx=0;entryDy=0;entryPerimeter=0;startArrow=none;startFill=0;endArrow=none;endFill=0;fontSize=8;exitX=0;exitY=0.5;exitDx=0;exitDy=0;" parent="1" source="f9F8cFvLClXmry9gnk70-13" target="Rg6xezFzuOhrAB8FiAtQ-204" edge="1">
          <mxGeometry relative="1" as="geometry">
            <mxPoint x="113" y="478" as="sourcePoint"/>
          </mxGeometry>
        </mxCell>
        <mxCell id="bCqW9GsPhboXD0qG2JR0-9" style="edgeStyle=orthogonalEdgeStyle;rounded=0;orthogonalLoop=1;jettySize=auto;html=1;entryX=1;entryY=0.5;entryDx=0;entryDy=0;entryPerimeter=0;endArrow=none;endFill=0;" parent="1" source="f9F8cFvLClXmry9gnk70-15" target="bCqW9GsPhboXD0qG2JR0-7" edge="1">
          <mxGeometry relative="1" as="geometry"/>
        </mxCell>
        <mxCell id="f9F8cFvLClXmry9gnk70-15" value="MunicipalEmployeeWebApp" style="html=1;align=center;strokeColor=#0000FF;" parent="1" vertex="1">
          <mxGeometry x="98" y="581" width="180" height="90" as="geometry"/>
        </mxCell>
        <mxCell id="f9F8cFvLClXmry9gnk70-16" value="" style="shape=component;jettyWidth=8;jettyHeight=4;align=center;" parent="f9F8cFvLClXmry9gnk70-15" vertex="1">
          <mxGeometry x="1" width="20" height="20" relative="1" as="geometry">
            <mxPoint x="-27" y="7" as="offset"/>
          </mxGeometry>
        </mxCell>
        <mxCell id="Rg6xezFzuOhrAB8FiAtQ-209" style="edgeStyle=orthogonalEdgeStyle;rounded=0;orthogonalLoop=1;jettySize=auto;html=1;entryX=1;entryY=0.5;entryDx=0;entryDy=0;entryPerimeter=0;startArrow=none;startFill=0;endArrow=none;endFill=0;fontSize=8;exitX=0;exitY=0.5;exitDx=0;exitDy=0;" parent="1" source="f9F8cFvLClXmry9gnk70-15" target="Rg6xezFzuOhrAB8FiAtQ-204" edge="1">
          <mxGeometry relative="1" as="geometry">
            <mxPoint x="113" y="594" as="sourcePoint"/>
          </mxGeometry>
        </mxCell>
        <mxCell id="f9F8cFvLClXmry9gnk70-25" value="MS" style="html=1;strokeColor=#FF3333;" parent="1" vertex="1">
          <mxGeometry x="358" y="120" width="180" height="90" as="geometry"/>
        </mxCell>
        <mxCell id="f9F8cFvLClXmry9gnk70-26" value="" style="shape=component;jettyWidth=8;jettyHeight=4;" parent="f9F8cFvLClXmry9gnk70-25" vertex="1">
          <mxGeometry x="1" width="20" height="20" relative="1" as="geometry">
            <mxPoint x="-27" y="7" as="offset"/>
          </mxGeometry>
        </mxCell>
        <mxCell id="Rg6xezFzuOhrAB8FiAtQ-206" style="edgeStyle=orthogonalEdgeStyle;rounded=0;orthogonalLoop=1;jettySize=auto;html=1;entryX=0;entryY=0.5;entryDx=0;entryDy=0;entryPerimeter=0;startArrow=none;startFill=0;endArrow=none;endFill=0;fontSize=8;exitX=0;exitY=0.5;exitDx=0;exitDy=0;" parent="1" source="f9F8cFvLClXmry9gnk70-25" target="Rg6xezFzuOhrAB8FiAtQ-204" edge="1">
          <mxGeometry relative="1" as="geometry">
            <mxPoint x="128" y="825" as="sourcePoint"/>
          </mxGeometry>
        </mxCell>
        <mxCell id="D_oB3atG6wPr-UcdfOcj-25" value="MapsInterface" style="text;html=1;align=center;verticalAlign=middle;resizable=0;points=[];;autosize=1;fontSize=8;" parent="1" vertex="1">
          <mxGeometry x="72.5" y="200" width="70" height="20" as="geometry"/>
        </mxCell>
        <mxCell id="D_oB3atG6wPr-UcdfOcj-26" value="ManageAccess" style="text;html=1;align=center;verticalAlign=middle;resizable=0;points=[];;autosize=1;fontSize=8;" parent="1" vertex="1">
          <mxGeometry x="814.5" y="261" width="70" height="20" as="geometry"/>
        </mxCell>
        <mxCell id="D_oB3atG6wPr-UcdfOcj-27" value="ManageReport" style="text;html=1;align=center;verticalAlign=middle;resizable=0;points=[];;autosize=1;fontSize=8;" parent="1" vertex="1">
          <mxGeometry x="815" y="500" width="70" height="20" as="geometry"/>
        </mxCell>
        <mxCell id="D_oB3atG6wPr-UcdfOcj-28" value="ManageReport&lt;br&gt;Mining" style="text;html=1;align=center;verticalAlign=middle;resizable=0;points=[];;autosize=1;fontSize=8;" parent="1" vertex="1">
          <mxGeometry x="1140.5" y="635" width="70" height="20" as="geometry"/>
        </mxCell>
        <mxCell id="D_oB3atG6wPr-UcdfOcj-29" value="Manage&lt;br&gt;Improvements" style="text;html=1;align=center;verticalAlign=middle;resizable=0;points=[];;autosize=1;fontSize=8;" parent="1" vertex="1">
          <mxGeometry x="814.5" y="770" width="70" height="20" as="geometry"/>
        </mxCell>
        <mxCell id="D_oB3atG6wPr-UcdfOcj-30" value="ManageStatistics&lt;br&gt;Computation" style="text;html=1;align=center;verticalAlign=middle;resizable=0;points=[];;autosize=1;fontSize=8;direction=west;rotation=0;" parent="1" vertex="1">
          <mxGeometry x="970" y="865" width="80" height="30" as="geometry"/>
        </mxCell>
        <mxCell id="D_oB3atG6wPr-UcdfOcj-38" value="DBMSInferface" style="text;html=1;align=center;verticalAlign=middle;resizable=0;points=[];;autosize=1;fontSize=8;" parent="1" vertex="1">
          <mxGeometry x="1709" y="392" width="70" height="20" as="geometry"/>
        </mxCell>
        <mxCell id="D_oB3atG6wPr-UcdfOcj-40" value="TSInterface" style="text;html=1;align=center;verticalAlign=middle;resizable=0;points=[];;autosize=1;fontSize=8;" parent="1" vertex="1">
          <mxGeometry x="1714" y="538.5" width="60" height="20" as="geometry"/>
        </mxCell>
        <mxCell id="bCqW9GsPhboXD0qG2JR0-6" style="edgeStyle=orthogonalEdgeStyle;rounded=0;orthogonalLoop=1;jettySize=auto;html=1;entryX=1;entryY=0.5;entryDx=0;entryDy=0;entryPerimeter=0;endArrow=none;endFill=0;" parent="1" source="bCqW9GsPhboXD0qG2JR0-1" target="bCqW9GsPhboXD0qG2JR0-4" edge="1">
          <mxGeometry relative="1" as="geometry"/>
        </mxCell>
        <mxCell id="bCqW9GsPhboXD0qG2JR0-8" style="edgeStyle=orthogonalEdgeStyle;rounded=0;orthogonalLoop=1;jettySize=auto;html=1;entryX=0;entryY=0.5;entryDx=0;entryDy=0;entryPerimeter=0;endArrow=none;endFill=0;exitX=0;exitY=0.5;exitDx=0;exitDy=0;" parent="1" source="bCqW9GsPhboXD0qG2JR0-1" target="bCqW9GsPhboXD0qG2JR0-7" edge="1">
          <mxGeometry relative="1" as="geometry">
            <mxPoint x="346" y="487.52941176470586" as="sourcePoint"/>
          </mxGeometry>
        </mxCell>
        <mxCell id="bCqW9GsPhboXD0qG2JR0-1" value="WebServer" style="html=1;strokeColor=#0000FF;" parent="1" vertex="1">
          <mxGeometry x="390" y="443" width="116" height="90" as="geometry"/>
        </mxCell>
        <mxCell id="bCqW9GsPhboXD0qG2JR0-2" value="" style="shape=component;jettyWidth=8;jettyHeight=4;" parent="bCqW9GsPhboXD0qG2JR0-1" vertex="1">
          <mxGeometry x="1" width="20" height="20" relative="1" as="geometry">
            <mxPoint x="-27" y="7" as="offset"/>
          </mxGeometry>
        </mxCell>
        <mxCell id="bCqW9GsPhboXD0qG2JR0-4" value="" style="shape=providedRequiredInterface;html=1;verticalLabelPosition=bottom;rotation=-180;" parent="1" vertex="1">
          <mxGeometry x="536" y="478" width="20" height="20" as="geometry"/>
        </mxCell>
        <mxCell id="bCqW9GsPhboXD0qG2JR0-7" value="" style="shape=providedRequiredInterface;html=1;verticalLabelPosition=bottom;rotation=-180;" parent="1" vertex="1">
          <mxGeometry x="333" y="478" width="20" height="20" as="geometry"/>
        </mxCell>
        <mxCell id="bCqW9GsPhboXD0qG2JR0-12" value="WebServer&lt;br&gt;Interface" style="text;html=1;align=center;verticalAlign=middle;resizable=0;points=[];;autosize=1;fontSize=8;" parent="1" vertex="1">
          <mxGeometry x="313" y="495" width="60" height="30" as="geometry"/>
        </mxCell>
        <mxCell id="bCqW9GsPhboXD0qG2JR0-13" value="Router&lt;br&gt;Interface" style="text;html=1;align=center;verticalAlign=middle;resizable=0;points=[];;autosize=1;fontSize=8;" parent="1" vertex="1">
          <mxGeometry x="523" y="495" width="50" height="30" as="geometry"/>
        </mxCell>
        <mxCell id="X8HoQQwuTY1pwaJ79AtR-4" style="edgeStyle=orthogonalEdgeStyle;rounded=0;orthogonalLoop=1;jettySize=auto;html=1;entryX=1;entryY=0.5;entryDx=0;entryDy=0;jumpStyle=arc;jumpSize=10;endArrow=none;endFill=0;exitX=0;exitY=0.5;exitDx=0;exitDy=0;" parent="1" source="X8HoQQwuTY1pwaJ79AtR-1" target="X8HoQQwuTY1pwaJ79AtR-3" edge="1">
          <mxGeometry relative="1" as="geometry">
            <Array as="points">
              <mxPoint x="680" y="413"/>
              <mxPoint x="680" y="251"/>
            </Array>
          </mxGeometry>
        </mxCell>
        <mxCell id="X8HoQQwuTY1pwaJ79AtR-1" value="" style="whiteSpace=wrap;html=1;aspect=fixed;" parent="1" vertex="1">
          <mxGeometry x="910.1428571428571" y="403" width="20" height="20" as="geometry"/>
        </mxCell>
        <mxCell id="X8HoQQwuTY1pwaJ79AtR-2" style="edgeStyle=orthogonalEdgeStyle;rounded=0;orthogonalLoop=1;jettySize=auto;html=1;entryX=1;entryY=0.5;entryDx=0;entryDy=0;endArrow=none;endFill=0;exitX=0;exitY=0.3;exitDx=0;exitDy=0;" parent="1" source="t4dxVVUfDJno4B-P36dR-88" target="X8HoQQwuTY1pwaJ79AtR-1" edge="1">
          <mxGeometry relative="1" as="geometry">
            <Array as="points">
              <mxPoint x="990" y="476"/>
              <mxPoint x="990" y="413"/>
            </Array>
          </mxGeometry>
        </mxCell>
        <mxCell id="X8HoQQwuTY1pwaJ79AtR-5" style="edgeStyle=orthogonalEdgeStyle;rounded=0;jumpStyle=arc;jumpSize=10;orthogonalLoop=1;jettySize=auto;html=1;entryX=1;entryY=0.5;entryDx=0;entryDy=0;entryPerimeter=0;endArrow=none;endFill=0;" parent="1" source="X8HoQQwuTY1pwaJ79AtR-3" target="Rg6xezFzuOhrAB8FiAtQ-204" edge="1">
          <mxGeometry relative="1" as="geometry"/>
        </mxCell>
        <mxCell id="X8HoQQwuTY1pwaJ79AtR-3" value="" style="whiteSpace=wrap;html=1;aspect=fixed;" parent="1" vertex="1">
          <mxGeometry x="590" y="241" width="20" height="20" as="geometry"/>
        </mxCell>
        <mxCell id="t4dxVVUfDJno4B-P36dR-87" style="edgeStyle=orthogonalEdgeStyle;rounded=0;orthogonalLoop=1;jettySize=auto;html=1;entryX=1;entryY=0.5;entryDx=0;entryDy=0;endArrow=none;endFill=0;" parent="1" source="t4dxVVUfDJno4B-P36dR-88" target="t4dxVVUfDJno4B-P36dR-91" edge="1">
          <mxGeometry relative="1" as="geometry"/>
        </mxCell>
        <mxCell id="t4dxVVUfDJno4B-P36dR-88" value="ReportReceiver" style="shape=component;align=center;spacingLeft=36;strokeColor=#00CC00;" parent="1" vertex="1">
          <mxGeometry x="1034.5454545454545" y="458" width="130.9090909090909" height="60" as="geometry"/>
        </mxCell>
        <mxCell id="t4dxVVUfDJno4B-P36dR-89" style="edgeStyle=orthogonalEdgeStyle;rounded=0;orthogonalLoop=1;jettySize=auto;html=1;entryX=1;entryY=0.5;entryDx=0;entryDy=0;endArrow=none;endFill=0;" parent="1" source="t4dxVVUfDJno4B-P36dR-90" target="t4dxVVUfDJno4B-P36dR-91" edge="1">
          <mxGeometry relative="1" as="geometry">
            <Array as="points">
              <mxPoint x="990" y="564"/>
              <mxPoint x="990" y="488"/>
            </Array>
          </mxGeometry>
        </mxCell>
        <mxCell id="3aXSVUDI5UktfETH09-O-2" style="edgeStyle=orthogonalEdgeStyle;rounded=0;orthogonalLoop=1;jettySize=auto;html=1;entryX=0;entryY=0.5;entryDx=0;entryDy=0;endArrow=none;endFill=0;" parent="1" source="t4dxVVUfDJno4B-P36dR-90" target="3aXSVUDI5UktfETH09-O-1" edge="1">
          <mxGeometry relative="1" as="geometry">
            <Array as="points">
              <mxPoint x="1300" y="570"/>
            </Array>
          </mxGeometry>
        </mxCell>
        <mxCell id="t4dxVVUfDJno4B-P36dR-90" value="ReportValidator" style="shape=component;align=center;spacingLeft=36;strokeColor=#00CC00;" parent="1" vertex="1">
          <mxGeometry x="1034.5454545454545" y="534" width="130.9090909090909" height="60" as="geometry"/>
        </mxCell>
        <mxCell id="t4dxVVUfDJno4B-P36dR-91" value="" style="whiteSpace=wrap;html=1;aspect=fixed;" parent="1" vertex="1">
          <mxGeometry x="910.1428571428571" y="478" width="20" height="20" as="geometry"/>
        </mxCell>
        <mxCell id="WwFhheWRcDjslNeChKha-9" style="edgeStyle=orthogonalEdgeStyle;rounded=0;orthogonalLoop=1;jettySize=auto;html=1;entryX=0;entryY=0.5;entryDx=0;entryDy=0;entryPerimeter=0;startArrow=none;startFill=0;endArrow=none;endFill=0;" parent="1" source="WwFhheWRcDjslNeChKha-2" target="WwFhheWRcDjslNeChKha-7" edge="1">
          <mxGeometry relative="1" as="geometry">
            <Array as="points">
              <mxPoint x="1110" y="410"/>
            </Array>
          </mxGeometry>
        </mxCell>
        <mxCell id="WwFhheWRcDjslNeChKha-2" value="OCRS" style="html=1;align=center;strokeColor=#FF3333;" parent="1" vertex="1">
          <mxGeometry x="1160" y="389" width="103" height="41" as="geometry"/>
        </mxCell>
        <mxCell id="WwFhheWRcDjslNeChKha-3" value="" style="shape=component;jettyWidth=8;jettyHeight=4;" parent="WwFhheWRcDjslNeChKha-2" vertex="1">
          <mxGeometry x="1" width="20" height="20" relative="1" as="geometry">
            <mxPoint x="-27" y="7" as="offset"/>
          </mxGeometry>
        </mxCell>
        <mxCell id="WwFhheWRcDjslNeChKha-10" style="edgeStyle=orthogonalEdgeStyle;rounded=0;orthogonalLoop=1;jettySize=auto;html=1;startArrow=none;startFill=0;endArrow=none;endFill=0;" parent="1" source="WwFhheWRcDjslNeChKha-7" target="t4dxVVUfDJno4B-P36dR-88" edge="1">
          <mxGeometry relative="1" as="geometry">
            <Array as="points">
              <mxPoint x="1110" y="450"/>
              <mxPoint x="1110" y="450"/>
            </Array>
          </mxGeometry>
        </mxCell>
        <mxCell id="WwFhheWRcDjslNeChKha-7" value="" style="shape=providedRequiredInterface;html=1;verticalLabelPosition=bottom;rotation=90;" parent="1" vertex="1">
          <mxGeometry x="1100" y="423" width="20" height="20" as="geometry"/>
        </mxCell>
        <mxCell id="WwFhheWRcDjslNeChKha-8" style="edgeStyle=none;rounded=0;orthogonalLoop=1;jettySize=auto;html=1;entryX=1;entryY=0.5;entryDx=0;entryDy=0;entryPerimeter=0;startArrow=none;startFill=0;endArrow=none;endFill=0;" parent="1" source="WwFhheWRcDjslNeChKha-7" target="WwFhheWRcDjslNeChKha-7" edge="1">
          <mxGeometry relative="1" as="geometry"/>
        </mxCell>
        <mxCell id="WwFhheWRcDjslNeChKha-13" value="OCRSInterface" style="text;html=1;align=center;verticalAlign=middle;resizable=0;points=[];;autosize=1;fontSize=8;" parent="1" vertex="1">
          <mxGeometry x="1030" y="420" width="70" height="20" as="geometry"/>
        </mxCell>
        <mxCell id="1Ea3umTl4piu4ciLJpsN-8" style="edgeStyle=orthogonalEdgeStyle;rounded=0;jumpStyle=arc;jumpSize=10;orthogonalLoop=1;jettySize=auto;html=1;entryX=1;entryY=0.5;entryDx=0;entryDy=0;entryPerimeter=0;endArrow=none;endFill=0;" parent="1" source="t4dxVVUfDJno4B-P36dR-123" target="t4dxVVUfDJno4B-P36dR-109" edge="1">
          <mxGeometry relative="1" as="geometry">
            <Array as="points">
              <mxPoint x="1130" y="675"/>
            </Array>
          </mxGeometry>
        </mxCell>
        <mxCell id="t4dxVVUfDJno4B-P36dR-123" value="Statistics&#xa;Computation&#xa;Manager" style="shape=component;align=left;spacingLeft=36;strokeColor=#00CC00;" parent="1" vertex="1">
          <mxGeometry x="1054.5454545454545" y="825" width="130.9090909090909" height="60" as="geometry"/>
        </mxCell>
        <mxCell id="_s4ivpgZW7JqygiYT5gf-34" style="edgeStyle=orthogonalEdgeStyle;rounded=0;jumpStyle=arc;jumpSize=10;orthogonalLoop=1;jettySize=auto;html=1;entryX=0;entryY=0.5;entryDx=0;entryDy=0;entryPerimeter=0;endArrow=none;endFill=0;" parent="1" source="_s4ivpgZW7JqygiYT5gf-1" target="_s4ivpgZW7JqygiYT5gf-33" edge="1">
          <mxGeometry relative="1" as="geometry"/>
        </mxCell>
        <mxCell id="1Ea3umTl4piu4ciLJpsN-9" style="edgeStyle=orthogonalEdgeStyle;rounded=0;jumpStyle=arc;jumpSize=10;orthogonalLoop=1;jettySize=auto;html=1;entryX=1;entryY=0.5;entryDx=0;entryDy=0;entryPerimeter=0;endArrow=none;endFill=0;" parent="1" source="_s4ivpgZW7JqygiYT5gf-1" target="t4dxVVUfDJno4B-P36dR-124" edge="1">
          <mxGeometry relative="1" as="geometry"/>
        </mxCell>
        <mxCell id="_s4ivpgZW7JqygiYT5gf-1" value="Statistics&#xa;Download&#xa;Manager" style="shape=component;align=left;spacingLeft=36;strokeColor=#00CC00;" parent="1" vertex="1">
          <mxGeometry x="889.0454545454545" y="910" width="130.9090909090909" height="60" as="geometry"/>
        </mxCell>
        <mxCell id="_s4ivpgZW7JqygiYT5gf-22" style="edgeStyle=orthogonalEdgeStyle;rounded=0;orthogonalLoop=1;jettySize=auto;html=1;entryX=0;entryY=0.5;entryDx=0;entryDy=0;endArrow=none;endFill=0;jumpStyle=arc;jumpSize=10;" parent="1" source="t4dxVVUfDJno4B-P36dR-123" target="t4dxVVUfDJno4B-P36dR-47" edge="1">
          <mxGeometry relative="1" as="geometry">
            <mxPoint x="1290.1428571428569" y="880.3333333333335" as="sourcePoint"/>
            <Array as="points">
              <mxPoint x="1510" y="855"/>
              <mxPoint x="1510" y="670"/>
            </Array>
          </mxGeometry>
        </mxCell>
        <mxCell id="_s4ivpgZW7JqygiYT5gf-35" style="edgeStyle=orthogonalEdgeStyle;rounded=0;jumpStyle=arc;jumpSize=10;orthogonalLoop=1;jettySize=auto;html=1;entryX=0.75;entryY=1;entryDx=0;entryDy=0;endArrow=none;endFill=0;" parent="1" source="_s4ivpgZW7JqygiYT5gf-33" target="t4dxVVUfDJno4B-P36dR-103" edge="1">
          <mxGeometry relative="1" as="geometry">
            <Array as="points">
              <mxPoint x="758" y="940"/>
            </Array>
          </mxGeometry>
        </mxCell>
        <mxCell id="_s4ivpgZW7JqygiYT5gf-33" value="" style="shape=providedRequiredInterface;html=1;verticalLabelPosition=bottom;rotation=180;" parent="1" vertex="1">
          <mxGeometry x="839.5" y="930" width="20" height="20" as="geometry"/>
        </mxCell>
        <mxCell id="_s4ivpgZW7JqygiYT5gf-36" value="ManageStatistics&lt;br&gt;Download" style="text;html=1;align=center;verticalAlign=middle;resizable=0;points=[];;autosize=1;fontSize=8;direction=west;rotation=0;" parent="1" vertex="1">
          <mxGeometry x="804.5" y="950" width="80" height="30" as="geometry"/>
        </mxCell>
        <mxCell id="t4dxVVUfDJno4B-P36dR-43" value="TS" style="html=1;align=center;strokeColor=#FF3333;" parent="1" vertex="1">
          <mxGeometry x="1797" y="624" width="123" height="90" as="geometry"/>
        </mxCell>
        <mxCell id="t4dxVVUfDJno4B-P36dR-44" value="" style="shape=component;jettyWidth=8;jettyHeight=4;" parent="t4dxVVUfDJno4B-P36dR-43" vertex="1">
          <mxGeometry x="1" width="20" height="20" relative="1" as="geometry">
            <mxPoint x="-27" y="7" as="offset"/>
          </mxGeometry>
        </mxCell>
        <mxCell id="t4dxVVUfDJno4B-P36dR-46" value="" style="shape=providedRequiredInterface;html=1;verticalLabelPosition=bottom;fontSize=8;align=center;rotation=180;" parent="1" vertex="1">
          <mxGeometry x="1734" y="659" width="20" height="20" as="geometry"/>
        </mxCell>
        <mxCell id="t4dxVVUfDJno4B-P36dR-42" style="edgeStyle=orthogonalEdgeStyle;rounded=0;orthogonalLoop=1;jettySize=auto;html=1;entryX=0;entryY=0.5;entryDx=0;entryDy=0;entryPerimeter=0;startArrow=none;startFill=0;endArrow=none;endFill=0;fontSize=8;exitX=0;exitY=0.5;exitDx=0;exitDy=0;" parent="1" source="t4dxVVUfDJno4B-P36dR-43" target="t4dxVVUfDJno4B-P36dR-46" edge="1">
          <mxGeometry relative="1" as="geometry">
            <mxPoint x="2245" y="709.6666666666667" as="sourcePoint"/>
          </mxGeometry>
        </mxCell>
        <mxCell id="t4dxVVUfDJno4B-P36dR-47" value="" style="whiteSpace=wrap;html=1;aspect=fixed;" parent="1" vertex="1">
          <mxGeometry x="1680" y="659" width="20" height="20" as="geometry"/>
        </mxCell>
        <mxCell id="t4dxVVUfDJno4B-P36dR-45" style="edgeStyle=orthogonalEdgeStyle;rounded=0;orthogonalLoop=1;jettySize=auto;html=1;entryX=1;entryY=0.5;entryDx=0;entryDy=0;endArrow=none;endFill=0;" parent="1" source="t4dxVVUfDJno4B-P36dR-46" target="t4dxVVUfDJno4B-P36dR-47" edge="1">
          <mxGeometry relative="1" as="geometry"/>
        </mxCell>
        <mxCell id="D_oB3atG6wPr-UcdfOcj-41" value="MASInterface" style="text;html=1;align=center;verticalAlign=middle;resizable=0;points=[];;autosize=1;fontSize=8;" parent="1" vertex="1">
          <mxGeometry x="1714" y="679" width="60" height="20" as="geometry"/>
        </mxCell>
        <mxCell id="t4dxVVUfDJno4B-P36dR-6" value="" style="shape=providedRequiredInterface;html=1;verticalLabelPosition=bottom;rotation=180;" parent="1" vertex="1">
          <mxGeometry x="840" y="241" width="20" height="20" as="geometry"/>
        </mxCell>
        <mxCell id="t4dxVVUfDJno4B-P36dR-31" style="edgeStyle=orthogonalEdgeStyle;rounded=0;orthogonalLoop=1;jettySize=auto;html=1;entryX=0;entryY=0.5;entryDx=0;entryDy=0;entryPerimeter=0;endArrow=none;endFill=0;" parent="1" source="t4dxVVUfDJno4B-P36dR-3" target="t4dxVVUfDJno4B-P36dR-6" edge="1">
          <mxGeometry relative="1" as="geometry"/>
        </mxCell>
        <mxCell id="t4dxVVUfDJno4B-P36dR-1" value="UserManager" style="html=1;verticalAlign=top;strokeColor=#0000FF;" parent="1" vertex="1">
          <mxGeometry x="920" y="151" width="360" height="192" as="geometry"/>
        </mxCell>
        <mxCell id="t4dxVVUfDJno4B-P36dR-4" style="edgeStyle=orthogonalEdgeStyle;rounded=0;orthogonalLoop=1;jettySize=auto;html=1;entryX=1;entryY=0.5;entryDx=0;entryDy=0;endArrow=none;endFill=0;" parent="1" source="f9F8cFvLClXmry9gnk70-27" target="t4dxVVUfDJno4B-P36dR-3" edge="1">
          <mxGeometry relative="1" as="geometry"/>
        </mxCell>
        <mxCell id="f9F8cFvLClXmry9gnk70-27" value="LoginManager" style="shape=component;align=center;spacingLeft=36;strokeColor=#00CC00;" parent="1" vertex="1">
          <mxGeometry x="1034.5454545454545" y="187" width="130.9090909090909" height="60" as="geometry"/>
        </mxCell>
        <mxCell id="t4dxVVUfDJno4B-P36dR-5" style="edgeStyle=orthogonalEdgeStyle;rounded=0;orthogonalLoop=1;jettySize=auto;html=1;entryX=1;entryY=0.5;entryDx=0;entryDy=0;endArrow=none;endFill=0;" parent="1" source="f9F8cFvLClXmry9gnk70-28" target="t4dxVVUfDJno4B-P36dR-3" edge="1">
          <mxGeometry relative="1" as="geometry"/>
        </mxCell>
        <mxCell id="f9F8cFvLClXmry9gnk70-28" value="SignUpManager" style="shape=component;align=center;spacingLeft=36;strokeColor=#00CC00;" parent="1" vertex="1">
          <mxGeometry x="1034.5454545454545" y="261" width="130.9090909090909" height="60" as="geometry"/>
        </mxCell>
        <mxCell id="t4dxVVUfDJno4B-P36dR-3" value="" style="whiteSpace=wrap;html=1;aspect=fixed;" parent="1" vertex="1">
          <mxGeometry x="910.1428571428571" y="241" width="20" height="20" as="geometry"/>
        </mxCell>
        <mxCell id="3aXSVUDI5UktfETH09-O-3" style="edgeStyle=orthogonalEdgeStyle;rounded=0;orthogonalLoop=1;jettySize=auto;html=1;entryX=0;entryY=0.5;entryDx=0;entryDy=0;endArrow=none;endFill=0;jumpStyle=arc;jumpSize=10;" parent="1" source="3aXSVUDI5UktfETH09-O-1" target="t4dxVVUfDJno4B-P36dR-47" edge="1">
          <mxGeometry relative="1" as="geometry">
            <Array as="points">
              <mxPoint x="1510" y="569"/>
              <mxPoint x="1510" y="670"/>
            </Array>
          </mxGeometry>
        </mxCell>
        <mxCell id="3aXSVUDI5UktfETH09-O-1" value="" style="whiteSpace=wrap;html=1;aspect=fixed;" parent="1" vertex="1">
          <mxGeometry x="1270" y="559.5" width="20" height="20" as="geometry"/>
        </mxCell>
        <mxCell id="oX8g2IVWqVXseOCtLXfV-14" style="edgeStyle=orthogonalEdgeStyle;rounded=0;orthogonalLoop=1;jettySize=auto;html=1;entryX=1;entryY=0.5;entryDx=0;entryDy=0;entryPerimeter=0;endArrow=none;endFill=0;" edge="1" parent="1" source="t4dxVVUfDJno4B-P36dR-20" target="oX8g2IVWqVXseOCtLXfV-5">
          <mxGeometry relative="1" as="geometry">
            <Array as="points">
              <mxPoint x="1370" y="251"/>
              <mxPoint x="1370" y="216"/>
            </Array>
          </mxGeometry>
        </mxCell>
        <mxCell id="oX8g2IVWqVXseOCtLXfV-15" style="edgeStyle=orthogonalEdgeStyle;rounded=0;orthogonalLoop=1;jettySize=auto;html=1;entryX=1;entryY=0.5;entryDx=0;entryDy=0;entryPerimeter=0;endArrow=none;endFill=0;" edge="1" parent="1" source="t4dxVVUfDJno4B-P36dR-20" target="oX8g2IVWqVXseOCtLXfV-3">
          <mxGeometry relative="1" as="geometry">
            <Array as="points">
              <mxPoint x="1370" y="251"/>
              <mxPoint x="1370" y="277"/>
            </Array>
          </mxGeometry>
        </mxCell>
        <mxCell id="t4dxVVUfDJno4B-P36dR-20" value="" style="whiteSpace=wrap;html=1;aspect=fixed;" parent="1" vertex="1">
          <mxGeometry x="1270" y="241" width="20" height="20" as="geometry"/>
        </mxCell>
        <mxCell id="t4dxVVUfDJno4B-P36dR-22" style="edgeStyle=orthogonalEdgeStyle;rounded=0;orthogonalLoop=1;jettySize=auto;html=1;entryX=0;entryY=0.5;entryDx=0;entryDy=0;endArrow=none;endFill=0;" parent="1" source="f9F8cFvLClXmry9gnk70-28" target="t4dxVVUfDJno4B-P36dR-20" edge="1">
          <mxGeometry relative="1" as="geometry">
            <Array as="points">
              <mxPoint x="1220" y="291"/>
              <mxPoint x="1220" y="251"/>
            </Array>
          </mxGeometry>
        </mxCell>
        <mxCell id="t4dxVVUfDJno4B-P36dR-21" style="edgeStyle=orthogonalEdgeStyle;rounded=0;orthogonalLoop=1;jettySize=auto;html=1;entryX=0;entryY=0.5;entryDx=0;entryDy=0;endArrow=none;endFill=0;" parent="1" source="f9F8cFvLClXmry9gnk70-27" target="t4dxVVUfDJno4B-P36dR-20" edge="1">
          <mxGeometry relative="1" as="geometry">
            <Array as="points">
              <mxPoint x="1220" y="217"/>
              <mxPoint x="1220" y="251"/>
            </Array>
          </mxGeometry>
        </mxCell>
        <mxCell id="oX8g2IVWqVXseOCtLXfV-13" style="edgeStyle=orthogonalEdgeStyle;rounded=0;orthogonalLoop=1;jettySize=auto;html=1;endArrow=none;endFill=0;" edge="1" parent="1" source="oX8g2IVWqVXseOCtLXfV-1" target="t4dxVVUfDJno4B-P36dR-28">
          <mxGeometry relative="1" as="geometry"/>
        </mxCell>
        <mxCell id="oX8g2IVWqVXseOCtLXfV-1" value="QueryManager" style="shape=component;align=center;spacingLeft=36;strokeColor=#00CC00;" vertex="1" parent="1">
          <mxGeometry x="1500" y="345" width="130.9090909090909" height="60" as="geometry"/>
        </mxCell>
        <mxCell id="oX8g2IVWqVXseOCtLXfV-17" style="edgeStyle=orthogonalEdgeStyle;rounded=0;orthogonalLoop=1;jettySize=auto;html=1;endArrow=none;endFill=0;" edge="1" parent="1" source="oX8g2IVWqVXseOCtLXfV-3" target="oX8g2IVWqVXseOCtLXfV-1">
          <mxGeometry relative="1" as="geometry">
            <Array as="points">
              <mxPoint x="1520" y="277"/>
            </Array>
          </mxGeometry>
        </mxCell>
        <mxCell id="oX8g2IVWqVXseOCtLXfV-3" value="" style="shape=providedRequiredInterface;html=1;verticalLabelPosition=bottom;rotation=-180;" vertex="1" parent="1">
          <mxGeometry x="1406.5" y="266.5" width="20" height="20" as="geometry"/>
        </mxCell>
        <mxCell id="oX8g2IVWqVXseOCtLXfV-22" style="edgeStyle=orthogonalEdgeStyle;rounded=0;orthogonalLoop=1;jettySize=auto;html=1;endArrow=none;endFill=0;" edge="1" parent="1" source="oX8g2IVWqVXseOCtLXfV-4" target="oX8g2IVWqVXseOCtLXfV-1">
          <mxGeometry relative="1" as="geometry"/>
        </mxCell>
        <mxCell id="oX8g2IVWqVXseOCtLXfV-4" value="" style="shape=providedRequiredInterface;html=1;verticalLabelPosition=bottom;rotation=-180;" vertex="1" parent="1">
          <mxGeometry x="1446.5" y="448" width="20" height="20" as="geometry"/>
        </mxCell>
        <mxCell id="oX8g2IVWqVXseOCtLXfV-16" style="edgeStyle=orthogonalEdgeStyle;rounded=0;orthogonalLoop=1;jettySize=auto;html=1;endArrow=none;endFill=0;" edge="1" parent="1" source="oX8g2IVWqVXseOCtLXfV-5" target="oX8g2IVWqVXseOCtLXfV-1">
          <mxGeometry relative="1" as="geometry">
            <Array as="points">
              <mxPoint x="1565" y="216"/>
            </Array>
          </mxGeometry>
        </mxCell>
        <mxCell id="oX8g2IVWqVXseOCtLXfV-5" value="" style="shape=providedRequiredInterface;html=1;verticalLabelPosition=bottom;rotation=-180;" vertex="1" parent="1">
          <mxGeometry x="1406.5" y="205.5" width="20" height="20" as="geometry"/>
        </mxCell>
        <mxCell id="oX8g2IVWqVXseOCtLXfV-20" style="edgeStyle=orthogonalEdgeStyle;rounded=0;orthogonalLoop=1;jettySize=auto;html=1;endArrow=none;endFill=0;" edge="1" parent="1" source="oX8g2IVWqVXseOCtLXfV-6" target="oX8g2IVWqVXseOCtLXfV-1">
          <mxGeometry relative="1" as="geometry"/>
        </mxCell>
        <mxCell id="oX8g2IVWqVXseOCtLXfV-6" value="" style="shape=providedRequiredInterface;html=1;verticalLabelPosition=bottom;rotation=-180;" vertex="1" parent="1">
          <mxGeometry x="1406.5" y="365" width="20" height="20" as="geometry"/>
        </mxCell>
        <mxCell id="oX8g2IVWqVXseOCtLXfV-7" value="UserHandler" style="text;html=1;align=center;verticalAlign=middle;resizable=0;points=[];;autosize=1;fontSize=8;" vertex="1" parent="1">
          <mxGeometry x="1386.5" y="226.5" width="60" height="10" as="geometry"/>
        </mxCell>
        <mxCell id="oX8g2IVWqVXseOCtLXfV-8" value="Improvement&lt;br&gt;Handler" style="text;html=1;align=center;verticalAlign=middle;resizable=0;points=[];;autosize=1;fontSize=8;" vertex="1" parent="1">
          <mxGeometry x="1426.5" y="468" width="60" height="20" as="geometry"/>
        </mxCell>
        <mxCell id="oX8g2IVWqVXseOCtLXfV-9" value="ReportHandler" style="text;html=1;align=center;verticalAlign=middle;resizable=0;points=[];;autosize=1;fontSize=8;" vertex="1" parent="1">
          <mxGeometry x="1381.5" y="390" width="70" height="10" as="geometry"/>
        </mxCell>
        <mxCell id="oX8g2IVWqVXseOCtLXfV-10" value="AuthorityHandler" style="text;html=1;align=center;verticalAlign=middle;resizable=0;points=[];;autosize=1;fontSize=8;" vertex="1" parent="1">
          <mxGeometry x="1381.5" y="286.5" width="70" height="10" as="geometry"/>
        </mxCell>
      </root>
    </mxGraphModel>
  </diagram>
</mxfile>
